<?xml version="1.0" encoding="UTF-8"?>
<svg xmlns="http://www.w3.org/2000/svg" xmlns:xlink="http://www.w3.org/1999/xlink" width="365pt" height="365pt" viewBox="0 0 365 365" version="1.1">
<g id="surface1">
<path style=" stroke:none;fill-rule:nonzero;fill:rgb(47.099304%,12.199402%,10.198975%);fill-opacity:1;" d="M 365 182.5 C 365 283.289063 283.289063 365 182.496094 365 C 81.707031 365 0 283.289063 0 182.5 C 0 81.707031 81.707031 0 182.496094 0 C 283.289063 0 365 81.707031 365 182.496094 "/>
<path style=" stroke:none;fill-rule:nonzero;fill:rgb(84.298706%,65.499878%,30.599976%);fill-opacity:1;" d="M 323.335938 182.5 C 323.335938 260.28125 260.28125 323.335938 182.5 323.335938 C 104.71875 323.335938 41.664063 260.28125 41.664063 182.5 C 41.664063 104.71875 104.71875 41.660156 182.5 41.660156 C 260.28125 41.660156 323.335938 104.71875 323.335938 182.5 "/>
<path style=" stroke:none;fill-rule:nonzero;fill:rgb(100%,100%,100%);fill-opacity:1;" d="M 323.335938 182.5 L 322.878906 182.5 C 322.878906 221.265625 307.167969 256.359375 281.765625 281.765625 C 256.359375 307.167969 221.265625 322.878906 182.5 322.878906 C 143.734375 322.878906 108.640625 307.167969 83.234375 281.765625 C 57.832031 256.359375 42.121094 221.265625 42.117188 182.5 C 42.121094 143.734375 57.832031 108.640625 83.234375 83.234375 C 108.640625 57.828125 143.734375 42.117188 182.5 42.117188 C 221.265625 42.117188 256.359375 57.828125 281.765625 83.234375 C 307.167969 108.640625 322.878906 143.730469 322.878906 182.5 L 323.792969 182.5 C 323.792969 104.464844 260.535156 41.207031 182.5 41.203125 C 104.464844 41.207031 41.207031 104.464844 41.207031 182.5 C 41.207031 260.535156 104.464844 323.792969 182.5 323.792969 C 260.535156 323.792969 323.792969 260.535156 323.792969 182.5 L 323.335938 182.5 "/>
<path style=" stroke:none;fill-rule:nonzero;fill:rgb(100%,100%,100%);fill-opacity:1;" d="M 60.527344 303.730469 L 75.671875 288.242188 L 79.164063 291.65625 L 64.019531 307.140625 L 60.527344 303.730469 "/>
<path style=" stroke:none;fill-rule:nonzero;fill:rgb(100%,100%,100%);fill-opacity:1;" d="M 71.238281 283.933594 L 54.402344 297.5625 L 50.800781 293.109375 L 54.144531 284.621094 C 55.109375 282.183594 56.417969 279.511719 57.6875 277.203125 L 57.648438 277.152344 C 55.605469 279.175781 53.398438 281.09375 50.847656 283.152344 L 45.949219 287.117188 L 43.121094 283.617188 L 59.957031 269.992188 L 63.191406 273.988281 L 59.605469 282.84375 C 58.59375 285.320313 57.355469 288.183594 56.027344 290.578125 L 56.105469 290.679688 C 58.257813 288.734375 60.589844 286.765625 63.335938 284.539063 L 68.40625 280.433594 L 71.238281 283.933594 "/>
<path style=" stroke:none;fill-rule:nonzero;fill:rgb(100%,100%,100%);fill-opacity:1;" d="M 37.929688 275.472656 C 36.753906 274.070313 35.449219 272.113281 34.238281 269.996094 C 32.179688 266.394531 31.425781 263.71875 31.769531 261.152344 C 32.105469 258.367188 33.746094 255.804688 37.09375 253.886719 C 40.691406 251.828125 43.921875 251.71875 46.480469 252.625 C 49.257813 253.664063 51.78125 256.257813 53.886719 259.941406 C 55.148438 262.144531 55.917969 263.8125 56.367188 264.929688 L 37.929688 275.472656 M 50.816406 262.472656 C 50.691406 262.066406 50.34375 261.449219 50.054688 260.949219 C 47.863281 257.054688 44.292969 255.726563 39.804688 258.296875 C 35.753906 260.613281 35.140625 263.996094 37.246094 267.683594 C 37.773438 268.601563 38.222656 269.199219 38.515625 269.511719 L 50.816406 262.472656 "/>
<path style=" stroke:none;fill-rule:nonzero;fill:rgb(100%,100%,100%);fill-opacity:1;" d="M 23.1875 247.355469 L 43.125 238.894531 L 45.035156 243.390625 L 25.09375 251.851563 L 23.1875 247.355469 "/>
<path style=" stroke:none;fill-rule:nonzero;fill:rgb(100%,100%,100%);fill-opacity:1;" d="M 33.960938 229.929688 L 39.71875 229.808594 L 41.15625 234.675781 L 18.507813 234.453125 L 16.699219 228.320313 L 35.566406 215.71875 L 37.054688 220.773438 L 32.199219 223.949219 L 33.960938 229.929688 M 28.890625 225.695313 L 24.867188 228.289063 C 23.730469 228.992188 22.269531 229.824219 21.15625 230.488281 L 21.1875 230.582031 C 22.5 230.492188 24.171875 230.371094 25.46875 230.328125 L 30.246094 230.289063 L 28.890625 225.695313 "/>
<path style=" stroke:none;fill-rule:nonzero;fill:rgb(100%,100%,100%);fill-opacity:1;" d="M 34.632813 211 L 13.15625 213.800781 L 12.417969 208.128906 L 19.707031 202.640625 C 21.804688 201.070313 24.316406 199.480469 26.609375 198.175781 L 26.605469 198.113281 C 23.808594 198.765625 20.917969 199.238281 17.667969 199.664063 L 11.421875 200.480469 L 10.839844 196.019531 L 32.320313 193.222656 L 32.984375 198.320313 L 25.296875 203.988281 C 23.136719 205.566406 20.582031 207.355469 18.199219 208.703125 L 18.21875 208.828125 C 21.0625 208.296875 24.082031 207.839844 27.589844 207.382813 L 34.054688 206.539063 L 34.636719 211 "/>
<path style=" stroke:none;fill-rule:nonzero;fill:rgb(100%,100%,100%);fill-opacity:1;" d="M 10.800781 172.792969 L 32.445313 173.695313 L 32.242188 178.574219 L 10.597656 177.671875 L 10.800781 172.792969 "/>
<path style=" stroke:none;fill-rule:nonzero;fill:rgb(100%,100%,100%);fill-opacity:1;" d="M 32.683594 167.472656 L 11.292969 164.058594 L 12.195313 158.410156 L 20.742188 155.21875 C 23.195313 154.308594 26.0625 153.496094 28.628906 152.898438 L 28.644531 152.835938 C 25.773438 152.671875 22.871094 152.304688 19.632813 151.785156 L 13.410156 150.792969 L 14.125 146.351563 L 35.511719 149.765625 L 34.703125 154.84375 L 25.722656 158.09375 C 23.203125 158.996094 20.242188 159.988281 17.574219 160.601563 L 17.554688 160.730469 C 20.4375 161.027344 23.460938 161.445313 26.949219 162.003906 L 33.394531 163.03125 L 32.683594 167.472656 "/>
<path style=" stroke:none;fill-rule:nonzero;fill:rgb(100%,100%,100%);fill-opacity:1;" d="M 32.355469 142.136719 C 33.386719 141.113281 34.644531 139.351563 35.269531 137.359375 C 35.941406 135.210938 35.40625 133.800781 34.027344 133.367188 C 32.769531 132.972656 31.695313 133.714844 30.058594 135.929688 C 27.757813 138.980469 25.144531 140.652344 22.109375 139.703125 C 18.582031 138.597656 16.84375 134.785156 18.363281 129.941406 C 19.101563 127.578125 20.089844 126.039063 21.058594 124.992188 L 24.46875 127.207031 C 23.824219 127.882813 22.769531 129.203125 22.144531 131.191406 C 21.511719 133.21875 22.15625 134.496094 23.195313 134.824219 C 24.515625 135.238281 25.453125 134.285156 27.339844 131.914063 C 29.835938 128.683594 32.265625 127.59375 35.210938 128.519531 C 38.675781 129.601563 40.792969 133.160156 39.015625 138.835938 C 38.277344 141.195313 36.902344 143.324219 35.894531 144.289063 L 32.355469 142.136719 "/>
<path style=" stroke:none;fill-rule:nonzero;fill:rgb(100%,100%,100%);fill-opacity:1;" d="M 29.070313 114.332031 L 26.609375 119.640625 L 22.878906 117.914063 L 29.871094 102.804688 L 33.601563 104.53125 L 31.121094 109.898438 L 47.042969 117.269531 L 44.996094 121.703125 L 29.070313 114.332031 "/>
<path style=" stroke:none;fill-rule:nonzero;fill:rgb(100%,100%,100%);fill-opacity:1;" d="M 35.808594 92.710938 L 54.433594 103.765625 L 51.941406 107.96875 L 33.3125 96.910156 L 35.808594 92.710938 "/>
<path style=" stroke:none;fill-rule:nonzero;fill:rgb(100%,100%,100%);fill-opacity:1;" d="M 46.089844 84.664063 L 42.609375 89.363281 L 39.304688 86.914063 L 49.214844 73.539063 L 52.519531 75.988281 L 49 80.742188 L 63.101563 91.1875 L 60.191406 95.109375 L 46.089844 84.664063 "/>
<path style=" stroke:none;fill-rule:nonzero;fill:rgb(100%,100%,100%);fill-opacity:1;" d="M 57.582031 64.265625 L 66.417969 73.023438 C 69.085938 75.667969 71.453125 75.976563 73.195313 74.21875 C 75.003906 72.394531 74.722656 70.121094 71.980469 67.40625 L 63.148438 58.652344 L 66.589844 55.183594 L 75.214844 63.734375 C 79.964844 68.4375 79.851563 73.074219 75.867188 77.09375 C 72.019531 80.972656 67.613281 81.085938 62.726563 76.242188 L 54.144531 67.738281 L 57.582031 64.265625 "/>
<path style=" stroke:none;fill-rule:nonzero;fill:rgb(100%,100%,100%);fill-opacity:1;" d="M 79.539063 49.921875 L 74.871094 53.445313 L 72.394531 50.160156 L 85.679688 40.136719 L 88.160156 43.417969 L 83.441406 46.980469 L 94.003906 60.988281 L 90.105469 63.929688 L 79.539063 49.921875 "/>
<path style=" stroke:none;fill-rule:nonzero;fill:rgb(100%,100%,100%);fill-opacity:1;" d="M 109.238281 40.699219 L 102.308594 44.644531 L 104.855469 49.113281 L 112.589844 44.707031 L 114.578125 48.195313 L 102.601563 55.023438 L 91.875 36.203125 L 103.460938 29.601563 L 105.449219 33.089844 L 98.109375 37.277344 L 100.335938 41.183594 L 107.261719 37.238281 L 109.238281 40.699219 "/>
<path style=" stroke:none;fill-rule:nonzero;fill:rgb(100%,100%,100%);fill-opacity:1;" d="M 135.90625 39.945313 C 129.820313 41.921875 124.714844 38.480469 122.804688 32.613281 C 120.800781 26.4375 123.273438 20.53125 129.324219 18.5625 C 135.648438 16.507813 140.644531 20.121094 142.492188 25.808594 C 144.699219 32.59375 141.953125 37.980469 135.933594 39.933594 L 135.90625 39.945313 M 134.914063 36.179688 C 138.0625 35.15625 138.902344 31.601563 137.589844 27.570313 C 136.386719 23.871094 133.613281 21.257813 130.402344 22.304688 C 127.191406 23.34375 126.40625 27.050781 127.65625 30.898438 C 128.921875 34.78125 131.765625 37.199219 134.886719 36.1875 L 134.910156 36.179688 L 134.914063 36.179688 "/>
<path style=" stroke:none;fill-rule:nonzero;fill:rgb(100%,100%,100%);fill-opacity:1;" d="M 147.449219 14.007813 L 160.476563 11.8125 L 161.144531 15.773438 L 152.933594 17.15625 L 153.761719 22.039063 L 161.429688 20.742188 L 162.089844 24.671875 L 154.421875 25.96875 L 155.871094 34.554688 L 151.058594 35.367188 L 147.449219 14.007813 "/>
<path style=" stroke:none;fill-rule:nonzero;fill:rgb(100%,100%,100%);fill-opacity:1;" d="M 182.613281 14.644531 L 176.769531 14.546875 L 176.835938 10.433594 L 193.480469 10.703125 L 193.410156 14.816406 L 187.5 14.722656 L 187.214844 32.269531 L 182.332031 32.1875 L 182.613281 14.644531 "/>
<path style=" stroke:none;fill-rule:nonzero;fill:rgb(100%,100%,100%);fill-opacity:1;" d="M 211.710938 25.59375 L 203.820313 24.457031 L 203.089844 29.546875 L 211.902344 30.8125 L 211.328125 34.789063 L 197.683594 32.828125 L 200.761719 11.390625 L 213.964844 13.285156 L 213.390625 17.261719 L 205.027344 16.058594 L 204.386719 20.515625 L 212.273438 21.644531 L 211.710938 25.59375 "/>
<path style=" stroke:none;fill-rule:nonzero;fill:rgb(100%,100%,100%);fill-opacity:1;" d="M 231.914063 39.660156 C 230.96875 39.824219 228.847656 39.757813 226.34375 39.046875 C 219.140625 37 216.714844 31.433594 218.40625 25.46875 C 220.429688 18.355469 226.613281 15.867188 232.917969 17.660156 C 235.359375 18.355469 237.078125 19.378906 237.785156 20.046875 L 235.742188 23.476563 C 234.929688 22.808594 233.707031 22.0625 232.007813 21.578125 C 228.300781 20.523438 224.75 21.953125 223.421875 26.625 C 222.238281 30.796875 223.964844 34.128906 228.140625 35.3125 C 229.59375 35.726563 231.21875 35.886719 232.289063 35.757813 L 231.914063 39.660156 "/>
<path style=" stroke:none;fill-rule:nonzero;fill:rgb(100%,100%,100%);fill-opacity:1;" d="M 250.136719 24.320313 L 246.671875 31.917969 L 254.007813 35.269531 L 257.476563 27.667969 L 261.921875 29.695313 L 252.929688 49.402344 L 248.488281 47.371094 L 252.234375 39.15625 L 244.894531 35.808594 L 241.148438 44.023438 L 236.699219 41.996094 L 245.695313 22.289063 L 250.136719 24.320313 "/>
<path style=" stroke:none;fill-rule:nonzero;fill:rgb(100%,100%,100%);fill-opacity:1;" d="M 258.367188 52.429688 L 270.394531 34.410156 L 275.148438 37.585938 L 274.488281 46.6875 C 274.285156 49.296875 273.832031 52.238281 273.304688 54.824219 L 273.359375 54.863281 C 274.707031 52.324219 276.25 49.835938 278.066406 47.109375 L 281.566406 41.871094 L 285.308594 44.367188 L 273.28125 62.382813 L 269.007813 59.53125 L 269.796875 50.011719 C 270.03125 47.347656 270.359375 44.242188 270.914063 41.5625 L 270.808594 41.492188 C 269.335938 43.984375 267.695313 46.5625 265.730469 49.5 L 262.109375 54.925781 L 258.367188 52.429688 "/>
<path style=" stroke:none;fill-rule:nonzero;fill:rgb(100%,100%,100%);fill-opacity:1;" d="M 284.648438 72.746094 C 279.976563 68.378906 280.511719 62.246094 284.726563 57.734375 C 289.15625 52.988281 295.519531 52.292969 300.175781 56.636719 C 305.035156 61.175781 304.289063 67.296875 300.210938 71.664063 C 295.34375 76.878906 289.304688 77.085938 284.671875 72.769531 L 284.652344 72.746094 M 287.46875 70.058594 C 289.890625 72.316406 293.398438 71.328125 296.296875 68.230469 C 298.949219 65.386719 299.890625 61.695313 297.425781 59.390625 C 294.960938 57.089844 291.335938 58.191406 288.574219 61.152344 C 285.785156 64.132813 285.046875 67.796875 287.441406 70.035156 L 287.46875 70.058594 "/>
<path style=" stroke:none;fill-rule:nonzero;fill:rgb(100%,100%,100%);fill-opacity:1;" d="M 312.851563 70.191406 L 315.90625 74.003906 L 302.222656 84.984375 L 307.617188 91.703125 L 304.410156 94.277344 L 295.960938 83.753906 L 312.851563 70.191406 "/>
<path style=" stroke:none;fill-rule:nonzero;fill:rgb(100%,100%,100%);fill-opacity:1;" d="M 311.03125 105.253906 C 307.742188 99.769531 309.949219 94.019531 315.234375 90.84375 C 320.804688 87.503906 327.113281 88.585938 330.390625 94.039063 C 333.816406 99.746094 331.414063 105.421875 326.289063 108.496094 C 320.171875 112.171875 314.308594 110.707031 311.050781 105.28125 L 311.03125 105.253906 M 314.484375 103.441406 C 316.1875 106.28125 319.832031 106.300781 323.472656 104.117188 C 326.804688 102.113281 328.726563 98.824219 326.992188 95.933594 C 325.253906 93.039063 321.464844 93.101563 317.996094 95.1875 C 314.496094 97.285156 312.777344 100.605469 314.464844 103.414063 L 314.480469 103.445313 L 314.484375 103.441406 "/>
<path style=" stroke:none;fill-rule:nonzero;fill:rgb(100%,100%,100%);fill-opacity:1;" d="M 326.582031 135.308594 C 325.546875 134.09375 323.835938 131.699219 322.777344 129.039063 C 321.316406 125.363281 321.1875 122.339844 322.21875 119.785156 C 323.257813 117.265625 325.480469 115.203125 328.4375 114.03125 C 335.140625 111.40625 340.898438 114.757813 343.519531 121.355469 C 344.550781 123.957031 344.835938 126.160156 344.777344 127.320313 L 340.726563 127.824219 C 340.796875 126.519531 340.617188 125.03125 339.742188 122.824219 C 338.238281 119.027344 334.9375 116.984375 330.574219 118.714844 C 326.394531 120.378906 325.015625 123.964844 326.5 127.699219 C 326.902344 128.714844 327.351563 129.503906 327.644531 129.800781 L 331.890625 128.117188 L 330.65625 125.011719 L 334.207031 123.601563 L 337.183594 131.101563 L 326.582031 135.308594 "/>
<path style=" stroke:none;fill-rule:nonzero;fill:rgb(100%,100%,100%);fill-opacity:1;" d="M 328.382813 146.128906 L 337.023438 144.136719 L 347.953125 134.59375 L 349.214844 140.070313 L 344.632813 143.371094 C 343.25 144.382813 342.234375 145.109375 340.96875 145.929688 L 340.980469 145.996094 C 342.40625 146.160156 343.738281 146.378906 345.390625 146.660156 L 350.953125 147.621094 L 352.183594 152.972656 L 338.277344 148.859375 L 329.476563 150.886719 L 328.378906 146.128906 "/>
<path style=" stroke:none;fill-rule:nonzero;fill:rgb(100%,100%,100%);fill-opacity:1;" d="M 341.195313 188.664063 C 343.792969 188.527344 346.910156 188.375 350.089844 188.328125 L 350.089844 188.261719 C 347.316406 187.597656 344.214844 186.75 341.664063 185.957031 L 333.167969 183.457031 L 333.105469 179.632813 L 341.421875 177.183594 C 343.988281 176.4375 347.023438 175.679688 349.875 175.085938 L 349.875 175.023438 C 346.949219 174.972656 343.605469 174.898438 340.902344 174.816406 L 332.671875 174.53125 L 332.601563 169.996094 L 354.277344 171.03125 L 354.382813 177.554688 L 347.15625 179.792969 C 344.691406 180.539063 342.003906 181.226563 339.472656 181.75 L 339.472656 181.875 C 341.988281 182.414063 344.828125 183.109375 347.285156 183.808594 L 354.519531 185.972656 L 354.621094 192.398438 L 332.984375 193.90625 L 332.910156 189.148438 L 341.195313 188.664063 "/>
<path style=" stroke:none;fill-rule:nonzero;fill:rgb(100%,100%,100%);fill-opacity:1;" d="M 336.703125 205.460938 L 331.480469 203.039063 L 332.328125 198.035156 L 352.574219 208.195313 L 351.503906 214.496094 L 329.011719 217.515625 L 329.898438 212.320313 L 335.660156 211.605469 L 336.703125 205.460938 M 339.394531 211.492188 L 344.152344 210.9375 C 345.476563 210.800781 347.160156 210.695313 348.449219 210.589844 L 348.464844 210.492188 C 347.246094 209.992188 345.691406 209.367188 344.511719 208.84375 L 340.199219 206.773438 L 339.394531 211.492188 "/>
<path style=" stroke:none;fill-rule:nonzero;fill:rgb(100%,100%,100%);fill-opacity:1;" d="M 347.976563 229.085938 C 347.703125 230.890625 347.101563 233.164063 346.316406 235.476563 C 344.984375 239.40625 343.476563 241.742188 341.324219 243.183594 C 339.019531 244.78125 336.007813 245.25 332.355469 244.015625 C 328.429688 242.679688 326.210938 240.332031 325.191406 237.816406 C 324.132813 235.046875 324.40625 231.4375 325.769531 227.421875 C 326.585938 225.015625 327.324219 223.332031 327.855469 222.261719 L 347.976563 229.085938 M 329.699219 228.042969 C 329.472656 228.40625 329.242188 229.078125 329.058594 229.625 C 327.59375 233.847656 328.964844 237.402344 333.867188 239.0625 C 338.28125 240.558594 341.226563 238.773438 342.589844 234.757813 C 342.929688 233.753906 343.078125 233.023438 343.117188 232.597656 L 329.699219 228.042969 "/>
<path style=" stroke:none;fill-rule:nonzero;fill:rgb(100%,100%,100%);fill-opacity:1;" d="M 338.332031 254.886719 C 337.867188 256.414063 336.972656 258.558594 335.757813 260.894531 C 334.277344 263.753906 332.8125 265.523438 330.992188 266.316406 C 329.472656 267.011719 327.804688 266.945313 326.039063 266.023438 C 323.609375 264.769531 322.832031 262.152344 323.089844 260.191406 L 323.007813 260.144531 C 321.769531 261.203125 320.125 261.292969 318.105469 260.859375 C 315.597656 260.316406 312.796875 259.589844 311.863281 259.574219 L 314.167969 255.121094 C 314.859375 255.117188 316.679688 255.449219 319.328125 256.136719 C 322.035156 256.851563 323.089844 256.347656 324.050781 254.566406 L 324.71875 253.285156 L 317.160156 249.359375 L 319.394531 245.050781 L 338.332031 254.886719 M 327.855469 254.910156 L 326.964844 256.625 C 325.84375 258.789063 326.261719 260.636719 327.945313 261.511719 C 329.683594 262.410156 331.21875 261.691406 332.257813 259.691406 C 332.800781 258.636719 333.054688 258.007813 333.132813 257.648438 L 327.855469 254.910156 "/>
<path style=" stroke:none;fill-rule:nonzero;fill:rgb(100%,100%,100%);fill-opacity:1;" d="M 310.804688 271.058594 L 307.1875 266.578125 L 310.167969 262.464844 L 323.828125 280.53125 L 320.078125 285.710938 L 298.574219 278.472656 L 301.664063 274.203125 L 307.148438 276.109375 L 310.804688 271.058594 M 310.550781 277.660156 L 315.066406 279.261719 C 316.3125 279.730469 317.867188 280.378906 319.070313 280.851563 L 319.125 280.773438 C 318.253906 279.785156 317.140625 278.539063 316.308594 277.546875 L 313.359375 273.78125 L 310.550781 277.660156 "/>
<path style=" stroke:none;fill-rule:nonzero;fill:rgb(100%,100%,100%);fill-opacity:1;" d="M 298.796875 285.632813 C 297.414063 286.089844 295.5 287.105469 294.054688 288.609375 C 292.492188 290.226563 292.339844 291.730469 293.382813 292.734375 C 294.328125 293.648438 295.621094 293.464844 298.074219 292.21875 C 301.5 290.511719 304.582031 290.183594 306.875 292.394531 C 309.535156 294.957031 309.386719 299.140625 305.863281 302.796875 C 304.148438 304.578125 302.574219 305.515625 301.242188 306.019531 L 299.179688 302.515625 C 300.058594 302.203125 301.589844 301.492188 303.035156 299.988281 C 304.511719 298.457031 304.507813 297.027344 303.71875 296.269531 C 302.722656 295.308594 301.460938 295.742188 298.710938 297.019531 C 295.039063 298.796875 292.375 298.683594 290.15625 296.542969 C 287.539063 294.023438 287.234375 289.894531 291.363281 285.609375 C 293.074219 283.832031 295.257813 282.539063 296.59375 282.128906 L 298.796875 285.632813 "/>
<path style=" stroke:none;fill-rule:nonzero;fill:rgb(100%,100%,100%);fill-opacity:1;" d="M 284.464844 311.492188 C 284.464844 313.261719 283.03125 314.695313 281.261719 314.695313 C 279.488281 314.695313 278.058594 313.261719 278.058594 311.492188 C 278.058594 309.722656 279.488281 308.289063 281.261719 308.289063 C 283.03125 308.289063 284.464844 309.722656 284.464844 311.492188 "/>
<path style=" stroke:none;fill-rule:nonzero;fill:rgb(100%,100%,100%);fill-opacity:1;" d="M 86.941406 311.492188 C 86.941406 313.261719 85.507813 314.691406 83.738281 314.691406 C 81.96875 314.691406 80.535156 313.261719 80.535156 311.492188 C 80.535156 309.722656 81.96875 308.285156 83.738281 308.285156 C 85.507813 308.285156 86.941406 309.722656 86.941406 311.492188 "/>
<path style=" stroke:none;fill-rule:nonzero;fill:rgb(100%,100%,100%);fill-opacity:1;" d="M 105.914063 268.726563 L 157.070313 277.855469 L 151.589844 284.25 L 201.832031 288.628906 L 196.800781 292.742188 L 246.378906 294.917969 L 180.820313 301.417969 L 189.042969 294.113281 L 136.976563 288.816406 L 145.652344 282.425781 L 105.914063 268.726563 "/>
<path style=" stroke:none;fill-rule:nonzero;fill:rgb(100%,100%,100%);fill-opacity:1;" d="M 100.019531 313.203125 L 104.519531 315.84375 C 104.535156 314.984375 104.644531 314.160156 104.851563 313.367188 C 105.058594 312.582031 105.363281 311.84375 105.765625 311.152344 C 106.394531 310.074219 107.355469 309.414063 108.644531 309.160156 C 109.9375 308.90625 111.183594 309.128906 112.390625 309.839844 C 113.875 310.707031 115.101563 312.273438 116.070313 314.535156 C 117.042969 316.792969 117.652344 319.484375 117.898438 322.605469 L 116.972656 322.714844 C 116.777344 320.433594 116.210938 318.402344 115.273438 316.621094 C 114.335938 314.84375 113.113281 313.515625 111.605469 312.632813 C 110.765625 312.140625 109.824219 312.09375 108.78125 312.488281 C 107.734375 312.886719 106.898438 313.628906 106.269531 314.699219 C 105.816406 315.472656 105.554688 316.039063 105.480469 316.410156 L 107.253906 317.445313 L 107.578125 320.222656 L 105.15625 318.800781 L 96.84375 332.964844 L 95.222656 329.855469 L 102.59375 317.292969 L 100.324219 315.964844 L 100.019531 313.203125 "/>
<path style=" stroke:none;fill-rule:nonzero;fill:rgb(100%,100%,100%);fill-opacity:1;" d="M 112.324219 338.878906 L 114.921875 333.511719 C 114.734375 333.558594 114.472656 333.539063 114.132813 333.4375 C 113.796875 333.34375 113.390625 333.183594 112.921875 332.957031 C 112.210938 332.609375 111.589844 332.054688 111.0625 331.289063 C 110.539063 330.523438 110.144531 329.621094 109.878906 328.582031 C 109.25 329.1875 108.570313 329.644531 107.835938 329.953125 C 107.101563 330.261719 106.394531 330.375 105.714844 330.292969 C 106.171875 332.886719 107.179688 335.515625 108.738281 338.175781 L 106.917969 338.949219 C 104.253906 331.308594 103.304688 326.707031 104.0625 325.140625 C 104.269531 324.710938 104.558594 324.414063 104.9375 324.238281 C 105.3125 324.0625 105.65625 324.046875 105.972656 324.203125 C 106.328125 324.378906 106.605469 324.671875 106.796875 325.097656 C 106.996094 325.523438 107.089844 326.027344 107.085938 326.605469 C 107.722656 326.609375 108.304688 326.441406 108.84375 326.105469 C 109.378906 325.769531 109.789063 325.308594 110.074219 324.726563 C 110.324219 324.210938 110.496094 323.710938 110.589844 323.230469 C 110.6875 322.746094 110.699219 322.296875 110.625 321.871094 L 105.640625 319.460938 L 105.101563 316.714844 L 123.339844 325.550781 L 123.875 328.296875 L 121.355469 327.070313 L 114.191406 341.855469 L 112.324219 338.882813 M 111.734375 324.964844 C 111.515625 325.847656 111.171875 326.769531 110.703125 327.734375 C 111.007813 328.410156 111.363281 328.988281 111.761719 329.476563 C 112.160156 329.957031 112.59375 330.3125 113.058594 330.539063 C 113.550781 330.777344 114.089844 330.890625 114.671875 330.882813 C 115.25 330.871094 115.824219 330.738281 116.390625 330.488281 L 118.675781 325.777344 L 111.976563 322.523438 C 112.03125 323.273438 111.949219 324.085938 111.734375 324.964844 "/>
<path style=" stroke:none;fill-rule:nonzero;fill:rgb(100%,100%,100%);fill-opacity:1;" d="M 121.402344 324.570313 L 126.300781 326.480469 C 126.171875 325.636719 126.148438 324.804688 126.222656 323.996094 C 126.296875 323.191406 126.472656 322.414063 126.761719 321.675781 C 127.214844 320.523438 128.054688 319.71875 129.285156 319.265625 C 130.515625 318.820313 131.78125 318.84375 133.082031 319.355469 C 134.683594 319.980469 136.140625 321.324219 137.457031 323.394531 C 138.773438 325.464844 139.804688 328.011719 140.542969 331.042969 L 139.648438 331.292969 C 139.09375 329.082031 138.21875 327.171875 137.011719 325.570313 C 135.808594 323.972656 134.394531 322.855469 132.773438 322.222656 C 131.867188 321.871094 130.9375 321.96875 129.972656 322.527344 C 129.007813 323.082031 128.300781 323.9375 127.851563 325.089844 C 127.523438 325.921875 127.359375 326.523438 127.339844 326.890625 L 129.238281 327.628906 L 129.988281 330.339844 L 127.375 329.320313 L 121.402344 344.625 L 119.3125 341.804688 L 124.605469 328.242188 L 122.144531 327.28125 L 121.402344 324.570313 "/>
<path style=" stroke:none;fill-rule:nonzero;fill:rgb(100%,100%,100%);fill-opacity:1;" d="M 146.554688 333.15625 L 147.511719 335.792969 L 144.304688 334.832031 L 142.808594 339.816406 L 135.847656 337.726563 C 135.300781 337.5625 134.773438 337.632813 134.269531 337.933594 C 133.761719 338.234375 133.421875 338.6875 133.242188 339.277344 C 133.046875 339.921875 133.164063 340.554688 133.585938 341.175781 C 134.007813 341.800781 134.613281 342.226563 135.398438 342.460938 L 137.589844 342.925781 C 137.558594 342.761719 137.546875 342.601563 137.539063 342.441406 C 137.535156 342.285156 137.550781 342.148438 137.585938 342.03125 C 137.722656 341.574219 138.054688 341.25 138.582031 341.046875 C 139.113281 340.835938 139.683594 340.828125 140.304688 341.011719 C 140.949219 341.207031 141.421875 341.613281 141.726563 342.238281 C 142.03125 342.867188 142.082031 343.519531 141.871094 344.214844 C 141.738281 344.667969 141.449219 345.042969 141.011719 345.339844 C 140.566406 345.636719 140.046875 345.796875 139.4375 345.824219 L 142.253906 351.332031 L 140.507813 351.976563 L 139.027344 347.839844 C 138.136719 348.558594 137.167969 349.023438 136.121094 349.257813 C 135.074219 349.488281 134.089844 349.460938 133.15625 349.183594 C 132.015625 348.839844 130.984375 348.113281 130.066406 347.011719 C 129.140625 345.90625 128.789063 344.984375 129.011719 344.246094 C 129.089844 343.984375 129.195313 343.746094 129.328125 343.527344 C 129.457031 343.304688 129.613281 343.109375 129.789063 342.921875 C 128.605469 342.46875 127.699219 341.785156 127.074219 340.882813 C 126.449219 339.980469 126.265625 339.097656 126.527344 338.238281 C 126.617188 337.929688 126.863281 337.578125 127.25 337.1875 C 127.640625 336.796875 128.144531 336.394531 128.761719 335.984375 L 130.625 338.882813 C 130.203125 339.070313 129.851563 339.273438 129.574219 339.503906 C 129.296875 339.730469 129.128906 339.953125 129.0625 340.167969 C 128.960938 340.5 129.050781 340.847656 129.320313 341.195313 C 129.585938 341.554688 129.976563 341.804688 130.476563 341.957031 L 132.242188 341.320313 C 131.808594 340.667969 131.535156 339.964844 131.417969 339.21875 C 131.304688 338.46875 131.351563 337.734375 131.5625 337.019531 C 131.816406 336.183594 132.433594 335.589844 133.40625 335.230469 C 134.386719 334.875 135.449219 334.867188 136.589844 335.210938 L 140.699219 336.445313 L 141.445313 333.96875 L 127.96875 329.917969 L 127.007813 327.277344 L 146.550781 333.152344 M 131.105469 346.601563 C 131.304688 346.9375 131.605469 347.164063 132.003906 347.285156 C 132.816406 347.523438 133.675781 347.484375 134.585938 347.164063 C 135.496094 346.84375 136.308594 346.285156 137.015625 345.488281 C 135.371094 344.992188 134.296875 344.476563 133.785156 343.933594 C 133.097656 343.910156 132.488281 344.054688 131.96875 344.363281 C 131.453125 344.671875 131.117188 345.085938 130.957031 345.605469 C 130.859375 345.9375 130.902344 346.273438 131.105469 346.601563 "/>
<path style=" stroke:none;fill-rule:nonzero;fill:rgb(100%,100%,100%);fill-opacity:1;" d="M 154 334.5 L 162.984375 336.132813 L 164.230469 338.648438 L 161.480469 338.148438 L 158.550781 354.300781 L 155.941406 351.925781 L 156.808594 347.148438 L 151.503906 346.183594 L 151.171875 348.023438 C 151.09375 348.4375 150.917969 348.765625 150.652344 349.007813 C 150.378906 349.25 150.101563 349.339844 149.800781 349.289063 C 148.925781 349.132813 148.042969 348.363281 147.171875 346.992188 C 146.296875 345.617188 145.945313 344.457031 146.117188 343.503906 C 146.164063 343.257813 146.324219 343.070313 146.617188 342.933594 C 146.90625 342.796875 147.21875 342.757813 147.5625 342.820313 L 149.023438 343.089844 L 149.65625 339.605469 C 148.269531 338.941406 147.199219 338.054688 146.460938 336.9375 C 145.722656 335.8125 145.457031 334.695313 145.664063 333.566406 C 145.789063 332.855469 146.191406 332.304688 146.851563 331.902344 C 147.515625 331.507813 148.253906 331.378906 149.058594 331.527344 C 150.15625 331.722656 151.148438 332.519531 152.03125 333.90625 C 152.910156 335.292969 153.246094 336.570313 153.035156 337.746094 L 151.96875 343.617188 L 157.273438 344.582031 L 158.539063 337.613281 L 155.0625 336.984375 L 154 334.5 M 148.113281 336.988281 C 148.550781 337.535156 149.15625 337.917969 149.925781 338.132813 L 150.488281 335.011719 C 150.550781 334.671875 150.53125 334.355469 150.433594 334.070313 C 150.335938 333.789063 150.1875 333.628906 149.988281 333.59375 C 149.433594 333.492188 148.921875 333.605469 148.460938 333.925781 C 148 334.246094 147.71875 334.6875 147.613281 335.246094 C 147.503906 335.863281 147.671875 336.441406 148.113281 336.988281 "/>
<path style=" stroke:none;fill-rule:nonzero;fill:rgb(100%,100%,100%);fill-opacity:1;" d="M 158.550781 326.960938 C 159.324219 326.390625 160.191406 326.164063 161.152344 326.285156 C 162.136719 326.410156 163.015625 326.785156 163.785156 327.417969 C 164.558594 328.054688 165.097656 328.859375 165.402344 329.820313 L 164.78125 330.304688 C 164.484375 329.84375 164.140625 329.476563 163.75 329.195313 C 163.363281 328.921875 162.957031 328.761719 162.539063 328.707031 C 161.683594 328.601563 160.902344 328.820313 160.214844 329.359375 C 159.519531 329.90625 159.121094 330.605469 159.011719 331.46875 C 158.953125 331.941406 159.035156 332.46875 159.246094 333.046875 C 159.460938 333.625 159.808594 334.222656 160.277344 334.832031 L 159.464844 335.335938 C 158.628906 334.429688 158.011719 333.433594 157.621094 332.355469 C 157.226563 331.28125 157.097656 330.21875 157.226563 329.183594 C 157.339844 328.269531 157.78125 327.53125 158.550781 326.960938 "/>
<path style=" stroke:none;fill-rule:nonzero;fill:rgb(100%,100%,100%);fill-opacity:1;" d="M 178.242188 337.253906 L 179.746094 339.621094 L 176.957031 339.414063 L 175.734375 355.800781 L 172.898438 353.710938 L 173.179688 349.976563 C 172.414063 350.519531 171.636719 350.925781 170.839844 351.191406 C 170.050781 351.460938 169.292969 351.566406 168.574219 351.511719 C 167.1875 351.410156 165.835938 350.660156 164.519531 349.265625 C 163.199219 347.867188 162.589844 346.539063 162.683594 345.273438 C 162.761719 344.207031 163.28125 343.320313 164.242188 342.621094 C 165.207031 341.914063 166.335938 341.617188 167.621094 341.710938 C 168.765625 341.792969 169.855469 342.191406 170.898438 342.890625 C 171.941406 343.59375 172.808594 344.527344 173.496094 345.703125 L 173.980469 339.191406 L 162.042969 338.304688 L 160.535156 335.9375 L 178.242188 337.253906 M 165.589844 348.4375 C 166.03125 348.867188 166.585938 349.105469 167.257813 349.15625 C 168.171875 349.230469 169.164063 349.078125 170.226563 348.707031 C 171.289063 348.335938 172.34375 347.769531 173.398438 347 C 172.8125 346.1875 172.160156 345.539063 171.449219 345.0625 C 170.734375 344.585938 170.023438 344.320313 169.300781 344.265625 C 168.164063 344.183594 167.175781 344.402344 166.339844 344.925781 C 165.5 345.449219 165.050781 346.117188 164.992188 346.9375 C 164.949219 347.507813 165.148438 348.003906 165.589844 348.4375 "/>
<path style=" stroke:none;fill-rule:nonzero;fill:rgb(100%,100%,100%);fill-opacity:1;" d="M 176.441406 337.078125 L 181.6875 337.160156 C 181.273438 336.410156 180.960938 335.640625 180.75 334.855469 C 180.539063 334.070313 180.4375 333.28125 180.453125 332.484375 C 180.472656 331.242188 180.980469 330.195313 181.976563 329.34375 C 182.972656 328.492188 184.171875 328.074219 185.566406 328.097656 C 187.289063 328.128906 189.121094 328.878906 191.078125 330.363281 C 193.03125 331.851563 194.886719 333.886719 196.640625 336.472656 L 195.882813 337.019531 C 194.59375 335.140625 193.101563 333.65625 191.417969 332.570313 C 189.726563 331.488281 188.019531 330.9375 186.269531 330.902344 C 185.300781 330.894531 184.460938 331.3125 183.746094 332.167969 C 183.035156 333.03125 182.667969 334.074219 182.648438 335.316406 C 182.632813 336.210938 182.683594 336.832031 182.804688 337.179688 L 184.847656 337.214844 L 186.496094 339.488281 L 183.691406 339.4375 L 183.425781 355.855469 L 180.480469 353.9375 L 180.71875 339.390625 L 178.074219 339.351563 L 176.441406 337.078125 "/>
<path style=" stroke:none;fill-rule:nonzero;fill:rgb(100%,100%,100%);fill-opacity:1;" d="M 200.089844 336.34375 L 201.917969 338.476563 L 199.125 338.664063 L 200.21875 355.050781 L 197.121094 353.378906 L 196.574219 345.1875 L 190.800781 345.570313 C 190.273438 345.605469 189.851563 345.875 189.523438 346.367188 C 189.195313 346.867188 189.050781 347.445313 189.097656 348.117188 C 189.164063 349.136719 189.5625 350.179688 190.28125 351.238281 C 190.996094 352.296875 191.988281 353.289063 193.242188 354.203125 L 192.1875 355.207031 C 190.339844 353.585938 188.890625 352.050781 187.855469 350.601563 C 186.824219 349.144531 186.269531 347.882813 186.199219 346.820313 C 186.132813 345.75 186.398438 344.8125 187.007813 343.996094 C 187.609375 343.183594 188.375 342.746094 189.292969 342.6875 L 196.378906 342.214844 L 196.152344 338.859375 L 184.410156 339.644531 L 182.589844 337.511719 L 200.089844 336.34375 "/>
<path style=" stroke:none;fill-rule:nonzero;fill:rgb(100%,100%,100%);fill-opacity:1;" d="M 225.222656 331.664063 L 227.3125 333.515625 L 218.542969 335.304688 L 219.546875 340.246094 C 219.808594 339.757813 220.152344 339.351563 220.585938 339.027344 C 221.015625 338.710938 221.5 338.492188 222.039063 338.386719 C 223.039063 338.179688 224.207031 338.710938 225.539063 339.980469 C 226.867188 341.246094 227.679688 342.601563 227.96875 344.039063 C 228.105469 344.699219 228.105469 345.433594 227.976563 346.25 C 227.847656 347.066406 227.597656 347.90625 227.210938 348.769531 L 224.371094 347.058594 C 224.945313 346.207031 225.335938 345.382813 225.570313 344.570313 C 225.800781 343.765625 225.855469 343.042969 225.722656 342.40625 C 225.597656 341.800781 225.296875 341.324219 224.816406 340.972656 C 224.339844 340.628906 223.816406 340.511719 223.253906 340.625 C 222.738281 340.730469 222.214844 341.035156 221.679688 341.539063 C 221.144531 342.039063 220.660156 342.703125 220.214844 343.53125 L 221.8125 351.394531 L 218.523438 350.152344 L 217.710938 346.132813 C 217.378906 346.632813 216.964844 347.042969 216.472656 347.371094 C 215.976563 347.699219 215.445313 347.921875 214.859375 348.042969 C 213.761719 348.265625 212.53125 347.859375 211.179688 346.808594 C 209.824219 345.765625 209.023438 344.621094 208.769531 343.378906 C 208.59375 342.527344 208.808594 341.722656 209.398438 340.964844 C 210 340.210938 210.789063 339.734375 211.796875 339.527344 C 212.574219 339.367188 213.398438 339.457031 214.261719 339.785156 C 215.136719 340.121094 215.957031 340.65625 216.742188 341.390625 L 215.621094 335.894531 L 206.445313 337.765625 L 204.351563 335.910156 L 225.21875 331.664063 M 211.738281 345.847656 C 212.160156 346.132813 212.628906 346.21875 213.144531 346.113281 C 213.898438 345.960938 214.613281 345.601563 215.296875 345.027344 C 215.980469 344.457031 216.5625 343.730469 217.039063 342.84375 C 216.609375 342.351563 216.113281 341.992188 215.546875 341.765625 C 214.980469 341.539063 214.445313 341.476563 213.933594 341.585938 C 212.980469 341.777344 212.210938 342.167969 211.625 342.773438 C 211.035156 343.375 210.808594 344 210.941406 344.65625 C 211.046875 345.171875 211.308594 345.566406 211.738281 345.847656 "/>
<path style=" stroke:none;fill-rule:nonzero;fill:rgb(100%,100%,100%);fill-opacity:1;" d="M 224.132813 350.785156 L 224.164063 350.78125 L 224.179688 350.816406 L 224.144531 350.820313 L 224.132813 350.785156 "/>
<path style=" stroke:none;fill-rule:nonzero;fill:rgb(100%,100%,100%);fill-opacity:1;" d="M 239.460938 326.503906 L 241.777344 328.089844 L 239.136719 328.988281 L 244.453125 344.527344 L 241.023438 343.730469 L 239.574219 339.488281 L 234.265625 341.308594 L 234.867188 343.074219 C 235.007813 343.472656 235.019531 343.84375 234.894531 344.191406 C 234.777344 344.53125 234.574219 344.75 234.296875 344.847656 C 233.398438 345.15625 232.203125 344.902344 230.722656 344.097656 C 229.230469 343.289063 228.328125 342.417969 228.007813 341.476563 C 227.910156 341.195313 227.949219 340.902344 228.125 340.605469 C 228.296875 340.308594 228.550781 340.105469 228.882813 339.992188 L 230.46875 339.449219 L 228.175781 332.742188 L 224.464844 334.015625 L 222.144531 332.429688 L 239.460938 326.503906 M 233.296875 338.480469 L 238.609375 336.660156 L 236.3125 329.957031 L 231 331.773438 L 233.296875 338.480469 "/>
<path style=" stroke:none;fill-rule:nonzero;fill:rgb(100%,100%,100%);fill-opacity:1;" d="M 231.175781 320.65625 C 231.574219 319.789063 232.226563 319.171875 233.128906 318.808594 C 234.050781 318.441406 235.007813 318.34375 235.992188 318.523438 C 236.972656 318.703125 237.832031 319.140625 238.566406 319.835938 L 238.257813 320.566406 C 237.777344 320.300781 237.296875 320.144531 236.824219 320.09375 C 236.34375 320.042969 235.90625 320.097656 235.515625 320.257813 C 234.703125 320.582031 234.128906 321.148438 233.777344 321.957031 C 233.433594 322.773438 233.421875 323.582031 233.742188 324.390625 C 233.925781 324.828125 234.246094 325.25 234.71875 325.652344 C 235.183594 326.054688 235.777344 326.40625 236.492188 326.710938 L 236.019531 327.542969 C 234.847656 327.15625 233.832031 326.585938 232.964844 325.832031 C 232.105469 325.078125 231.476563 324.222656 231.085938 323.25 C 230.746094 322.394531 230.773438 321.53125 231.171875 320.65625 "/>
<path style=" stroke:none;fill-rule:nonzero;fill:rgb(100%,100%,100%);fill-opacity:1;" d="M 256.164063 318.78125 L 258.632813 320.074219 L 256.113281 321.265625 L 263.125 336.101563 L 259.621094 335.707031 L 256.269531 328.605469 L 251.539063 330.84375 C 252.582031 331.125 253.492188 331.546875 254.273438 332.117188 C 255.050781 332.691406 255.625 333.359375 255.988281 334.121094 C 256.378906 334.957031 256.402344 335.816406 256.054688 336.714844 C 255.699219 337.605469 255.085938 338.261719 254.210938 338.675781 C 252.742188 339.367188 250.914063 339.1875 248.730469 338.144531 C 246.539063 337.097656 244.445313 335.402344 242.464844 333.0625 L 243.3125 332.246094 C 244.71875 333.898438 246.214844 335.085938 247.78125 335.808594 C 249.351563 336.527344 250.675781 336.636719 251.761719 336.125 C 252.230469 335.898438 252.546875 335.53125 252.703125 335.015625 C 252.859375 334.496094 252.8125 333.980469 252.570313 333.460938 C 252.195313 332.671875 251.449219 331.976563 250.320313 331.371094 C 249.195313 330.769531 247.824219 330.332031 246.203125 330.042969 L 254.988281 325.894531 L 253.402344 322.542969 L 239.585938 329.074219 L 237.113281 327.777344 L 256.164063 318.78125 "/>
<path style=" stroke:none;fill-rule:nonzero;fill:rgb(100%,100%,100%);fill-opacity:1;" d="M 261.410156 315.464844 L 263.992188 316.578125 L 261.574219 317.972656 L 269.777344 332.199219 L 266.25 332.078125 L 258.980469 319.46875 L 256.675781 320.792969 L 254.09375 319.683594 L 261.410156 315.464844 "/>
<path style=" stroke:none;fill-rule:nonzero;fill:rgb(100%,100%,100%);fill-opacity:1;" d="M 211.1875 186.144531 C 206.601563 196.15625 200.203125 204.996094 193.589844 213.800781 C 204.84375 216.742188 219.109375 218.652344 230.835938 217.835938 C 243.484375 216.960938 256.308594 215.441406 268.621094 212.292969 C 271.496094 211.554688 282.511719 209.148438 282.511719 204.421875 C 282.511719 197.296875 252.953125 188.898438 211.1875 186.144531 M 82.488281 204.515625 C 82.488281 209.242188 93.5 211.648438 96.378906 212.382813 C 108.691406 215.535156 121.515625 217.054688 134.164063 217.929688 C 145.890625 218.746094 160.152344 216.835938 171.410156 213.894531 C 164.796875 205.089844 158.398438 196.246094 153.8125 186.238281 C 112.046875 188.992188 82.488281 197.386719 82.488281 204.515625 "/>
<path style=" stroke:none;fill-rule:nonzero;fill:rgb(11.799622%,9.799194%,8.999634%);fill-opacity:1;" d="M 211.1875 186.144531 L 210.769531 185.957031 C 206.210938 195.910156 199.835938 204.726563 193.222656 213.527344 L 192.816406 214.070313 L 193.472656 214.242188 C 202.996094 216.730469 214.644531 218.480469 225.132813 218.480469 C 227.089844 218.480469 229.007813 218.421875 230.863281 218.289063 C 243.53125 217.414063 256.382813 215.894531 268.734375 212.734375 C 270.160156 212.367188 273.660156 211.578125 276.816406 210.273438 C 278.398438 209.621094 279.902344 208.839844 281.035156 207.890625 C 282.167969 206.949219 282.964844 205.792969 282.964844 204.421875 C 282.964844 203.367188 282.421875 202.351563 281.484375 201.386719 C 279.839844 199.695313 276.933594 198.066406 272.902344 196.480469 C 260.832031 191.734375 238.660156 187.503906 211.214844 185.691406 L 210.902344 185.671875 L 210.769531 185.957031 L 211.1875 186.144531 L 211.15625 186.601563 C 232.015625 187.976563 249.824219 190.761719 262.394531 194.085938 C 268.679688 195.746094 273.652344 197.542969 277.023438 199.347656 C 278.710938 200.25 279.992188 201.15625 280.832031 202.019531 C 281.675781 202.890625 282.054688 203.695313 282.054688 204.421875 C 282.054688 205.414063 281.476563 206.332031 280.453125 207.191406 C 278.921875 208.476563 276.46875 209.523438 274.136719 210.289063 C 271.800781 211.0625 269.597656 211.570313 268.507813 211.851563 C 256.238281 214.992188 243.4375 216.507813 230.800781 217.382813 C 228.96875 217.507813 227.070313 217.570313 225.132813 217.570313 C 214.746094 217.570313 203.152344 215.828125 193.703125 213.359375 L 193.589844 213.800781 L 193.953125 214.074219 C 200.570313 205.265625 206.988281 196.398438 211.601563 186.335938 L 211.1875 186.144531 L 211.15625 186.601563 Z M 82.488281 204.515625 L 82.035156 204.515625 C 82.035156 205.886719 82.832031 207.042969 83.960938 207.984375 C 85.667969 209.40625 88.195313 210.460938 90.578125 211.25 C 92.957031 212.039063 95.199219 212.554688 96.265625 212.824219 C 108.617188 215.988281 121.46875 217.507813 134.132813 218.386719 C 135.992188 218.515625 137.910156 218.574219 139.867188 218.574219 C 150.355469 218.574219 162.003906 216.824219 171.527344 214.335938 L 172.183594 214.164063 L 171.777344 213.621094 C 165.164063 204.820313 158.789063 196.003906 154.230469 186.050781 L 154.097656 185.761719 L 153.785156 185.785156 C 132.875 187.160156 115.023438 189.949219 102.371094 193.296875 C 96.046875 194.96875 91.019531 196.777344 87.546875 198.636719 C 85.808594 199.566406 84.453125 200.511719 83.515625 201.480469 C 82.578125 202.441406 82.035156 203.460938 82.035156 204.515625 L 82.945313 204.515625 C 82.945313 203.789063 83.324219 202.984375 84.167969 202.113281 C 85.636719 200.59375 88.464844 198.976563 92.429688 197.421875 C 104.335938 192.738281 126.46875 188.496094 153.84375 186.695313 L 153.8125 186.238281 L 153.398438 186.429688 C 158.011719 196.492188 164.429688 205.359375 171.046875 214.171875 L 171.410156 213.894531 L 171.296875 213.453125 C 161.847656 215.921875 150.253906 217.664063 139.867188 217.660156 C 137.929688 217.660156 136.03125 217.601563 134.199219 217.472656 C 121.5625 216.597656 108.765625 215.085938 96.492188 211.941406 C 95.042969 211.570313 91.597656 210.789063 88.53125 209.523438 C 87 208.894531 85.566406 208.140625 84.546875 207.285156 C 83.523438 206.425781 82.945313 205.507813 82.945313 204.515625 L 82.488281 204.515625 "/>
<path style=" stroke:none;fill-rule:nonzero;fill:rgb(100%,100%,100%);fill-opacity:1;" d="M 171.425781 213.851563 C 164.859375 205.09375 158.507813 196.132813 153.945313 186.160156 C 153.597656 185.394531 153.230469 184.632813 152.902344 183.855469 C 150.609375 178.402344 148.765625 172.820313 147.699219 167.414063 C 142.890625 143.128906 150.554688 118.480469 163.988281 98.296875 C 171.835938 86.503906 180.199219 74.496094 182.335938 60.160156 L 182.796875 60.160156 C 184.929688 74.496094 193.292969 86.503906 201.136719 98.296875 C 214.570313 118.480469 222.238281 143.128906 217.433594 167.414063 C 216.359375 172.820313 214.519531 178.402344 212.222656 183.855469 C 211.898438 184.628906 211.53125 185.382813 211.1875 186.144531 C 206.601563 196.15625 200.203125 204.996094 193.589844 213.800781 C 189.460938 212.726563 185.722656 211.511719 182.683594 210.238281 C 179.636719 211.515625 175.894531 212.726563 171.753906 213.808594 L 171.425781 213.847656 "/>
<path style=" stroke:none;fill-rule:nonzero;fill:rgb(11.799622%,9.799194%,8.999634%);fill-opacity:1;" d="M 171.425781 213.851563 L 171.789063 213.574219 C 165.226563 204.828125 158.898438 195.890625 154.359375 185.972656 C 154.007813 185.199219 153.644531 184.441406 153.324219 183.679688 C 151.039063 178.246094 149.207031 172.691406 148.148438 167.328125 C 147.171875 162.402344 146.714844 157.464844 146.714844 152.550781 C 146.710938 133.371094 153.714844 114.554688 164.367188 98.550781 C 172.210938 86.761719 180.625 74.699219 182.785156 60.226563 L 182.335938 60.160156 L 182.335938 60.617188 L 182.796875 60.617188 L 182.796875 60.160156 L 182.34375 60.226563 C 184.503906 74.699219 192.921875 86.761719 200.757813 98.550781 C 211.414063 114.558594 218.417969 133.378906 218.417969 152.558594 C 218.417969 157.46875 217.960938 162.40625 216.984375 167.328125 C 215.917969 172.691406 214.089844 178.246094 211.804688 183.679688 C 211.480469 184.4375 211.121094 185.1875 210.769531 185.957031 C 206.210938 195.910156 199.835938 204.726563 193.222656 213.527344 L 193.589844 213.800781 L 193.703125 213.359375 C 189.589844 212.289063 185.871094 211.078125 182.859375 209.816406 L 182.683594 209.742188 L 182.507813 209.816406 C 179.488281 211.082031 175.761719 212.289063 171.640625 213.363281 L 171.753906 213.808594 L 171.699219 213.355469 L 171.367188 213.394531 L 170.96875 213.445313 L 170.96875 213.851563 L 171.425781 213.851563 L 171.789063 213.574219 L 171.425781 213.851563 L 171.882813 213.851563 L 171.882813 213.847656 L 171.425781 213.847656 L 171.480469 214.300781 L 171.8125 214.261719 L 171.839844 214.257813 L 171.871094 214.25 C 176.023438 213.164063 179.785156 211.945313 182.859375 210.660156 L 182.683594 210.238281 L 182.507813 210.660156 C 185.574219 211.945313 189.328125 213.164063 193.472656 214.242188 L 193.769531 214.320313 L 193.953125 214.074219 C 200.570313 205.265625 206.988281 196.398438 211.601563 186.335938 C 211.945313 185.578125 212.3125 184.820313 212.644531 184.03125 C 214.949219 178.558594 216.796875 172.949219 217.878906 167.503906 C 218.867188 162.523438 219.328125 157.527344 219.328125 152.558594 C 219.328125 133.152344 212.25 114.171875 201.519531 98.042969 C 193.664063 86.242188 185.355469 74.289063 183.246094 60.09375 L 183.1875 59.703125 L 181.941406 59.703125 L 181.882813 60.09375 C 179.773438 74.289063 171.464844 86.242188 163.609375 98.042969 C 152.875 114.171875 145.800781 133.144531 145.800781 152.550781 C 145.800781 157.519531 146.265625 162.519531 147.253906 167.503906 C 148.328125 172.949219 150.179688 178.558594 152.480469 184.03125 C 152.816406 184.824219 153.183594 185.589844 153.527344 186.351563 C 158.113281 196.375 164.488281 205.359375 171.058594 214.125 L 171.882813 215.21875 L 171.882813 213.851563 L 171.425781 213.851563 "/>
<path style=" stroke:none;fill-rule:nonzero;fill:rgb(47.099304%,12.199402%,10.198975%);fill-opacity:1;" d="M 171.410156 213.894531 C 160.152344 216.835938 145.890625 218.746094 134.164063 217.929688 C 121.515625 217.054688 108.691406 215.535156 96.378906 212.382813 C 93.773438 211.71875 84.511719 209.683594 82.773438 205.800781 C 92.324219 240.828125 133.347656 267.164063 182.523438 267.164063 C 231.691406 267.164063 272.722656 240.828125 282.265625 205.804688 L 282.175781 205.804688 C 280.328125 209.625 271.203125 211.632813 268.621094 212.292969 C 256.308594 215.441406 243.484375 216.960938 230.835938 217.835938 C 219.109375 218.652344 204.84375 216.742188 193.589844 213.800781 C 189.460938 212.726563 185.722656 211.511719 182.683594 210.238281 C 179.636719 211.515625 175.890625 212.726563 171.753906 213.808594 L 171.425781 213.847656 L 171.410156 213.894531 "/>
<path style=" stroke:none;fill-rule:nonzero;fill:rgb(11.799622%,9.799194%,8.999634%);fill-opacity:1;" d="M 171.296875 213.453125 C 161.847656 215.921875 150.253906 217.664063 139.867188 217.660156 C 137.929688 217.660156 136.03125 217.601563 134.199219 217.472656 C 121.5625 216.597656 108.765625 215.085938 96.492188 211.941406 C 95.179688 211.605469 92.234375 210.9375 89.414063 209.871094 C 88.003906 209.339844 86.628906 208.710938 85.515625 207.992188 C 84.402344 207.273438 83.566406 206.460938 83.191406 205.613281 L 83.070313 205.34375 L 82.175781 205.34375 L 82.332031 205.921875 C 91.976563 241.21875 133.195313 267.617188 182.523438 267.621094 C 231.847656 267.617188 273.070313 241.21875 282.707031 205.925781 L 282.863281 205.347656 L 281.890625 205.347656 L 281.765625 205.605469 C 281.363281 206.441406 280.515625 207.242188 279.398438 207.949219 C 277.722656 209.019531 275.480469 209.878906 273.421875 210.519531 C 271.359375 211.164063 269.484375 211.601563 268.507813 211.851563 C 256.238281 214.992188 243.4375 216.507813 230.800781 217.382813 C 228.96875 217.507813 227.070313 217.570313 225.132813 217.570313 C 214.746094 217.570313 203.152344 215.828125 193.703125 213.359375 C 189.589844 212.289063 185.871094 211.078125 182.859375 209.816406 L 182.683594 209.742188 L 182.507813 209.816406 C 179.488281 211.082031 175.761719 212.289063 171.640625 213.363281 L 171.753906 213.808594 L 171.699219 213.355469 L 171.367188 213.394531 L 171.480469 214.300781 L 171.8125 214.261719 L 171.839844 214.257813 L 171.871094 214.25 C 176.023438 213.164063 179.785156 211.945313 182.859375 210.660156 L 182.683594 210.238281 L 182.507813 210.660156 C 185.574219 211.945313 189.328125 213.164063 193.472656 214.242188 C 202.996094 216.730469 214.644531 218.480469 225.132813 218.480469 C 227.089844 218.480469 229.007813 218.421875 230.863281 218.289063 C 243.53125 217.414063 256.382813 215.894531 268.734375 212.734375 C 270.015625 212.40625 272.964844 211.734375 275.835938 210.660156 C 277.269531 210.121094 278.691406 209.480469 279.886719 208.722656 C 281.082031 207.960938 282.0625 207.078125 282.585938 206.003906 L 282.175781 205.804688 L 282.175781 206.261719 L 282.265625 206.261719 L 282.265625 205.804688 L 281.824219 205.683594 C 272.371094 240.4375 231.539063 266.714844 182.523438 266.710938 C 133.5 266.714844 92.671875 240.4375 83.214844 205.679688 L 82.773438 205.800781 L 82.773438 206.257813 L 82.773438 205.800781 L 82.359375 205.988281 C 82.851563 207.085938 83.828125 207.980469 85.019531 208.757813 C 86.8125 209.917969 89.128906 210.800781 91.253906 211.46875 C 93.371094 212.132813 95.300781 212.578125 96.265625 212.824219 C 108.617188 215.988281 121.46875 217.507813 134.132813 218.386719 C 135.992188 218.515625 137.910156 218.574219 139.867188 218.574219 C 150.355469 218.574219 162.003906 216.824219 171.527344 214.335938 L 171.296875 213.453125 "/>
<path style=" stroke:none;fill-rule:nonzero;fill:rgb(74.099731%,63.899231%,26.298523%);fill-opacity:1;" d="M 184.328125 184.484375 C 183.542969 185.285156 182.839844 186.171875 182.8125 186.894531 L 182.714844 186.894531 C 182.6875 186.132813 181.90625 185.191406 181.070313 184.359375 L 181.070313 210.507813 L 182.015625 210.507813 C 182.238281 210.417969 182.46875 210.328125 182.683594 210.238281 C 182.898438 210.328125 183.125 210.417969 183.347656 210.507813 L 184.328125 210.507813 L 184.328125 184.484375 "/>
<path style=" stroke:none;fill-rule:nonzero;fill:rgb(11.799622%,9.799194%,8.999634%);fill-opacity:1;" d="M 184.328125 184.484375 L 184.003906 184.164063 C 183.597656 184.578125 183.210938 185.015625 182.90625 185.464844 C 182.609375 185.914063 182.382813 186.375 182.359375 186.878906 L 182.8125 186.894531 L 182.8125 186.4375 L 182.714844 186.4375 L 182.714844 186.894531 L 183.171875 186.878906 C 183.148438 186.347656 182.894531 185.863281 182.570313 185.390625 C 182.242188 184.921875 181.820313 184.460938 181.390625 184.035156 L 180.613281 183.257813 L 180.613281 210.964844 L 182.105469 210.964844 L 182.1875 210.933594 C 182.40625 210.84375 182.636719 210.753906 182.859375 210.660156 L 182.683594 210.238281 L 182.503906 210.660156 C 182.726563 210.753906 182.957031 210.84375 183.175781 210.929688 L 183.257813 210.964844 L 184.785156 210.964844 L 184.785156 183.371094 L 184.003906 184.164063 L 184.328125 184.484375 L 183.871094 184.484375 L 183.871094 210.050781 L 183.347656 210.050781 L 183.347656 210.507813 L 183.519531 210.085938 C 183.292969 209.992188 183.066406 209.90625 182.859375 209.816406 L 182.683594 209.742188 L 182.507813 209.816406 C 182.296875 209.90625 182.070313 209.992188 181.84375 210.085938 L 182.015625 210.507813 L 182.015625 210.050781 L 181.527344 210.050781 L 181.527344 184.359375 L 181.070313 184.359375 L 180.746094 184.679688 C 181.15625 185.085938 181.542969 185.515625 181.820313 185.914063 C 182.101563 186.3125 182.257813 186.679688 182.257813 186.910156 L 182.273438 187.351563 L 183.253906 187.351563 L 183.269531 186.910156 C 183.273438 186.691406 183.410156 186.347656 183.664063 185.972656 C 183.917969 185.597656 184.273438 185.195313 184.652344 184.804688 L 184.328125 184.484375 L 183.871094 184.484375 L 184.328125 184.484375 "/>
<path style=" stroke:none;fill-rule:nonzero;fill:rgb(85.499573%,16.099548%,15.299988%);fill-opacity:1;" d="M 183.109375 165.753906 L 182.398438 165.753906 C 178.800781 165.753906 175.796875 168.34375 174.992188 171.976563 C 173.949219 176.679688 176.101563 179.6875 179.296875 182.71875 C 180.136719 183.515625 182.664063 185.515625 182.714844 186.894531 L 182.8125 186.894531 C 182.863281 185.515625 185.390625 183.515625 186.230469 182.71875 C 189.425781 179.6875 191.578125 176.679688 190.535156 171.976563 C 189.730469 168.34375 186.722656 165.753906 183.128906 165.753906 L 182.417969 165.753906 L 183.109375 165.753906 "/>
<path style=" stroke:none;fill-rule:nonzero;fill:rgb(11.799622%,9.799194%,8.999634%);fill-opacity:1;" d="M 183.109375 165.296875 L 182.398438 165.296875 C 178.574219 165.296875 175.390625 168.054688 174.546875 171.878906 C 174.359375 172.722656 174.269531 173.523438 174.269531 174.28125 C 174.269531 176.089844 174.78125 177.664063 175.628906 179.085938 C 176.476563 180.507813 177.648438 181.78125 178.980469 183.050781 C 179.425781 183.46875 180.25 184.152344 180.972656 184.902344 C 181.332031 185.277344 181.664063 185.664063 181.894531 186.019531 C 182.132813 186.378906 182.253906 186.703125 182.257813 186.910156 C 182.265625 187.15625 182.46875 187.351563 182.714844 187.351563 L 182.8125 187.351563 C 183.058594 187.351563 183.261719 187.15625 183.269531 186.910156 C 183.273438 186.703125 183.398438 186.378906 183.632813 186.019531 C 183.980469 185.484375 184.550781 184.886719 185.109375 184.355469 C 185.667969 183.824219 186.210938 183.367188 186.546875 183.050781 C 187.882813 181.78125 189.054688 180.507813 189.898438 179.085938 C 190.746094 177.664063 191.261719 176.085938 191.257813 174.277344 C 191.257813 173.523438 191.171875 172.722656 190.984375 171.878906 C 190.136719 168.054688 186.953125 165.296875 183.128906 165.296875 L 182.417969 165.296875 L 182.417969 166.210938 L 183.128906 166.210938 C 186.496094 166.210938 189.320313 168.628906 190.09375 172.078125 C 190.265625 172.863281 190.347656 173.59375 190.347656 174.277344 C 190.34375 175.914063 189.894531 177.304688 189.117188 178.617188 C 188.335938 179.925781 187.226563 181.148438 185.917969 182.390625 C 185.519531 182.765625 184.660156 183.476563 183.898438 184.269531 C 183.515625 184.671875 183.152344 185.089844 182.867188 185.523438 C 182.589844 185.953125 182.378906 186.394531 182.359375 186.878906 L 182.8125 186.894531 L 182.8125 186.4375 L 182.714844 186.4375 L 182.714844 186.894531 L 183.171875 186.878906 C 183.148438 186.398438 182.9375 185.953125 182.660156 185.523438 C 182.238281 184.878906 181.628906 184.246094 181.046875 183.695313 C 180.46875 183.144531 179.90625 182.671875 179.609375 182.386719 C 178.304688 181.148438 177.191406 179.925781 176.414063 178.617188 C 175.636719 177.308594 175.183594 175.914063 175.183594 174.28125 C 175.183594 173.59375 175.265625 172.863281 175.4375 172.078125 C 176.207031 168.628906 179.03125 166.210938 182.398438 166.210938 L 183.109375 166.210938 L 183.109375 165.296875 "/>
<path style=" stroke:none;fill-rule:nonzero;fill:rgb(85.499573%,16.099548%,15.299988%);fill-opacity:1;" d="M 174.992188 171.976563 C 175.53125 169.53125 177.082031 167.585938 179.125 166.558594 L 179.402344 166.121094 C 179.402344 166.121094 170.453125 158.871094 159.261719 167.578125 C 159.796875 167.332031 164.125 171.070313 164.699219 171.484375 C 167.667969 173.605469 170.804688 174.464844 174.496094 173.796875 L 174.792969 173.328125 C 174.839844 172.890625 174.886719 172.449219 174.992188 171.976563 "/>
<path style=" stroke:none;fill-rule:nonzero;fill:rgb(11.799622%,9.799194%,8.999634%);fill-opacity:1;" d="M 174.992188 171.976563 L 175.4375 172.078125 C 175.949219 169.761719 177.410156 167.933594 179.332031 166.964844 L 179.511719 166.800781 L 179.785156 166.367188 C 179.910156 166.171875 179.867188 165.914063 179.6875 165.769531 C 179.644531 165.738281 176.074219 162.839844 170.554688 162.835938 C 167.242188 162.832031 163.246094 163.894531 158.980469 167.214844 C 158.796875 167.359375 158.75 167.613281 158.871094 167.8125 C 158.988281 168.011719 159.238281 168.089844 159.449219 167.992188 L 159.320313 167.710938 L 159.320313 168.019531 L 159.449219 167.992188 L 159.320313 167.710938 L 159.320313 168.019531 L 159.320313 167.925781 L 159.300781 168.019531 L 159.320313 168.019531 L 159.320313 167.925781 L 159.300781 168.019531 C 159.324219 168.023438 159.46875 168.082031 159.644531 168.183594 C 160.265625 168.539063 161.359375 169.378906 162.332031 170.15625 C 162.816406 170.546875 163.277344 170.921875 163.648438 171.226563 C 164.019531 171.527344 164.289063 171.746094 164.4375 171.855469 C 166.796875 173.546875 169.308594 174.476563 172.101563 174.476563 C 172.902344 174.476563 173.726563 174.398438 174.578125 174.242188 C 174.703125 174.222656 174.8125 174.148438 174.882813 174.039063 L 175.179688 173.574219 L 175.246094 173.375 C 175.292969 172.941406 175.339844 172.515625 175.4375 172.078125 L 174.992188 171.976563 L 174.671875 172.300781 C 174.785156 172.417969 174.960938 172.464844 175.121094 172.417969 C 175.28125 172.371094 175.402344 172.238281 175.4375 172.078125 L 174.992188 171.976563 L 175.316406 171.65625 C 175.199219 171.539063 175.023438 171.492188 174.867188 171.539063 C 174.707031 171.585938 174.585938 171.714844 174.546875 171.878906 C 174.433594 172.378906 174.386719 172.84375 174.339844 173.28125 L 174.792969 173.328125 L 174.410156 173.082031 L 174.113281 173.550781 L 174.496094 173.796875 L 174.414063 173.347656 C 173.613281 173.492188 172.84375 173.5625 172.101563 173.5625 C 169.511719 173.558594 167.214844 172.71875 164.96875 171.109375 C 164.859375 171.035156 164.488281 170.730469 164.019531 170.347656 C 163.308594 169.769531 162.34375 168.980469 161.476563 168.335938 C 161.042969 168.011719 160.636719 167.71875 160.285156 167.503906 C 160.113281 167.394531 159.953125 167.308594 159.804688 167.238281 C 159.652344 167.171875 159.523438 167.113281 159.320313 167.109375 L 159.070313 167.160156 L 159.261719 167.578125 L 159.539063 167.9375 C 163.671875 164.730469 167.4375 163.75 170.554688 163.746094 C 173.148438 163.746094 175.296875 164.433594 176.796875 165.121094 C 177.542969 165.464844 178.128906 165.808594 178.523438 166.0625 C 178.722656 166.191406 178.871094 166.296875 178.972656 166.371094 L 179.113281 166.476563 L 179.402344 166.121094 L 179.015625 165.878906 L 178.742188 166.3125 L 179.125 166.558594 L 178.921875 166.148438 C 176.753906 167.242188 175.117188 169.304688 174.546875 171.878906 L 174.992188 171.976563 L 175.316406 171.65625 L 174.992188 171.976563 "/>
<path style=" stroke:none;fill-rule:nonzero;fill:rgb(85.499573%,16.099548%,15.299988%);fill-opacity:1;" d="M 185.585938 166.042969 L 185.695313 166.21875 C 188.089844 167.117188 189.933594 169.25 190.535156 171.976563 C 190.679688 172.636719 190.753906 173.253906 190.777344 173.851563 C 194.300781 174.386719 197.320313 173.527344 200.179688 171.484375 C 200.753906 171.070313 205.085938 167.332031 205.617188 167.578125 C 194.425781 158.871094 185.585938 166.042969 185.585938 166.042969 "/>
<path style=" stroke:none;fill-rule:nonzero;fill:rgb(11.799622%,9.799194%,8.999634%);fill-opacity:1;" d="M 185.585938 166.042969 L 185.199219 166.289063 L 185.308594 166.460938 L 185.535156 166.644531 C 187.777344 167.488281 189.515625 169.492188 190.09375 172.078125 L 190.089844 172.074219 C 190.230469 172.703125 190.296875 173.296875 190.324219 173.867188 C 190.332031 174.085938 190.492188 174.269531 190.710938 174.300781 C 191.421875 174.410156 192.113281 174.464844 192.789063 174.464844 C 195.578125 174.464844 198.089844 173.542969 200.445313 171.855469 C 200.613281 171.730469 200.964844 171.441406 201.4375 171.054688 C 202.144531 170.476563 203.105469 169.695313 203.949219 169.066406 C 204.371094 168.75 204.761719 168.472656 205.070313 168.28125 C 205.226563 168.183594 205.359375 168.109375 205.457031 168.066406 L 205.5625 168.023438 L 205.578125 168.019531 L 205.554688 167.890625 L 205.558594 168.019531 L 205.578125 168.019531 L 205.554688 167.890625 L 205.558594 168.019531 L 205.558594 167.710938 L 205.429688 167.992188 L 205.558594 168.019531 L 205.558594 167.710938 L 205.429688 167.992188 C 205.636719 168.089844 205.886719 168.011719 206.007813 167.8125 C 206.128906 167.617188 206.082031 167.359375 205.898438 167.214844 C 201.601563 163.871094 197.597656 162.808594 194.292969 162.808594 C 188.84375 162.8125 185.339844 165.65625 185.296875 165.6875 L 185.585938 166.042969 L 185.585938 165.585938 C 185.417969 165.585938 185.265625 165.679688 185.183594 165.824219 C 185.105469 165.96875 185.109375 166.148438 185.199219 166.289063 L 185.585938 166.042969 L 185.585938 166.5 L 185.871094 166.398438 L 185.902344 166.375 C 186.253906 166.101563 189.492188 163.71875 194.292969 163.722656 C 197.402344 163.722656 201.179688 164.707031 205.339844 167.9375 L 205.617188 167.578125 L 205.808594 167.160156 L 205.558594 167.109375 C 205.296875 167.121094 205.136719 167.207031 204.921875 167.3125 C 204.207031 167.691406 203.101563 168.546875 202.070313 169.367188 C 201.5625 169.773438 201.074219 170.171875 200.6875 170.488281 C 200.304688 170.804688 200.007813 171.046875 199.914063 171.113281 C 197.671875 172.714844 195.375 173.546875 192.789063 173.550781 C 192.160156 173.550781 191.515625 173.5 190.847656 173.398438 L 190.777344 173.851563 L 191.234375 173.828125 C 191.207031 173.210938 191.132813 172.566406 190.984375 171.882813 L 190.984375 171.878906 C 190.347656 169.011719 188.402344 166.746094 185.855469 165.789063 L 185.695313 166.21875 L 186.078125 165.972656 L 185.96875 165.800781 L 185.585938 166.042969 L 185.585938 166.5 L 185.585938 166.042969 "/>
<path style=" stroke:none;fill-rule:nonzero;fill:rgb(85.499573%,16.099548%,15.299988%);fill-opacity:1;" d="M 182.300781 114.722656 C 182.300781 114.722656 159.289063 149.855469 179.5 165.402344 L 185.09375 165.402344 C 205.300781 149.855469 182.292969 114.722656 182.292969 114.722656 L 182.300781 114.722656 "/>
<path style=" stroke:none;fill-rule:nonzero;fill:rgb(11.799622%,9.799194%,8.999634%);fill-opacity:1;" d="M 181.917969 114.472656 C 181.90625 114.488281 179.121094 118.746094 176.328125 124.964844 C 173.539063 131.183594 170.734375 139.359375 170.734375 147.253906 C 170.726563 154.179688 172.921875 160.925781 179.222656 165.761719 L 179.5 165.859375 L 185.09375 165.859375 L 185.371094 165.761719 C 191.671875 160.925781 193.867188 154.179688 193.859375 147.253906 C 193.855469 139.359375 191.054688 131.183594 188.265625 124.964844 C 185.472656 118.746094 182.683594 114.488281 182.675781 114.472656 C 182.539063 114.261719 182.253906 114.203125 182.042969 114.34375 C 181.832031 114.480469 181.773438 114.761719 181.910156 114.972656 C 181.914063 114.972656 182.082031 115.230469 182.382813 115.722656 C 184.496094 119.144531 192.957031 133.8125 192.945313 147.253906 C 192.941406 154 190.851563 160.390625 184.816406 165.039063 L 185.09375 165.402344 L 185.09375 164.945313 L 179.5 164.945313 L 179.5 165.402344 L 179.777344 165.039063 C 173.742188 160.390625 171.652344 154 171.644531 147.253906 C 171.644531 139.578125 174.398438 131.488281 177.160156 125.335938 C 178.542969 122.261719 179.925781 119.664063 180.960938 117.84375 C 181.476563 116.929688 181.910156 116.210938 182.210938 115.722656 C 182.511719 115.230469 182.679688 114.972656 182.679688 114.972656 C 182.820313 114.761719 182.761719 114.480469 182.550781 114.34375 C 182.339844 114.203125 182.054688 114.261719 181.917969 114.472656 "/>
<path style=" stroke:none;fill-rule:nonzero;fill:rgb(85.499573%,16.099548%,15.299988%);fill-opacity:1;" d="M 177.300781 123.941406 L 167.632813 115.425781 C 168.484375 116.175781 168.125 121.132813 168.144531 122.257813 C 168.183594 124.953125 168.03125 127.65625 167.765625 130.339844 C 167.410156 133.890625 166.652344 137.335938 166.097656 140.851563 C 165.226563 146.402344 165.890625 152.210938 168.960938 157.019531 C 171.210938 160.554688 175.421875 163.605469 179.28125 165.214844 C 165.921875 154.667969 171.953125 135.382813 177.300781 123.941406 "/>
<path style=" stroke:none;fill-rule:nonzero;fill:rgb(11.799622%,9.799194%,8.999634%);fill-opacity:1;" d="M 177.300781 123.941406 L 177.605469 123.597656 L 167.933594 115.082031 C 167.746094 114.914063 167.457031 114.933594 167.289063 115.121094 C 167.121094 115.3125 167.140625 115.597656 167.332031 115.765625 C 167.34375 115.769531 167.425781 115.886719 167.484375 116.089844 C 167.679688 116.703125 167.75 117.953125 167.746094 119.148438 C 167.746094 120.386719 167.6875 121.582031 167.6875 122.164063 L 167.6875 122.269531 L 167.6875 122.265625 C 167.691406 122.554688 167.695313 122.84375 167.695313 123.132813 C 167.695313 125.519531 167.550781 127.910156 167.3125 130.292969 C 166.960938 133.8125 166.207031 137.246094 165.648438 140.78125 C 165.414063 142.269531 165.289063 143.777344 165.289063 145.28125 C 165.289063 149.472656 166.261719 153.640625 168.574219 157.265625 C 170.90625 160.910156 175.167969 163.988281 179.105469 165.636719 C 179.316406 165.722656 179.558594 165.644531 179.675781 165.445313 C 179.792969 165.25 179.746094 164.996094 179.566406 164.855469 C 173.699219 160.21875 171.660156 153.902344 171.652344 147.238281 C 171.648438 139.058594 174.78125 130.410156 177.714844 124.136719 C 177.804688 123.945313 177.753906 123.71875 177.585938 123.585938 L 177.300781 123.941406 L 177.605469 123.597656 L 177.300781 123.941406 L 177.015625 124.296875 L 177.300781 123.941406 L 176.890625 123.75 C 173.925781 130.089844 170.742188 138.828125 170.742188 147.238281 C 170.734375 154.078125 172.875 160.742188 179 165.574219 L 179.28125 165.214844 L 179.457031 164.792969 C 175.675781 163.222656 171.515625 160.195313 169.34375 156.773438 C 167.140625 153.320313 166.203125 149.332031 166.199219 145.28125 C 166.199219 143.828125 166.324219 142.367188 166.550781 140.925781 C 167.101563 137.425781 167.859375 133.972656 168.21875 130.386719 C 168.460938 127.980469 168.605469 125.558594 168.605469 123.132813 C 168.605469 122.839844 168.605469 122.546875 168.601563 122.253906 L 168.601563 122.25 L 168.597656 122.164063 C 168.597656 121.632813 168.660156 120.410156 168.660156 119.148438 C 168.660156 118.328125 168.636719 117.488281 168.546875 116.777344 C 168.503906 116.421875 168.441406 116.097656 168.355469 115.816406 C 168.265625 115.535156 168.15625 115.285156 167.933594 115.082031 C 167.84375 115.003906 167.722656 114.960938 167.605469 114.96875 C 167.484375 114.976563 167.367188 115.03125 167.289063 115.121094 C 167.210938 115.210938 167.167969 115.332031 167.175781 115.453125 C 167.183594 115.570313 167.238281 115.6875 167.332031 115.765625 L 177 124.285156 L 177.015625 124.296875 L 177.300781 123.941406 "/>
<path style=" stroke:none;fill-rule:nonzero;fill:rgb(85.499573%,16.099548%,15.299988%);fill-opacity:1;" d="M 198.601563 140.851563 C 198.046875 137.335938 197.289063 133.890625 196.933594 130.339844 C 196.664063 127.65625 196.511719 124.953125 196.558594 122.257813 C 196.570313 121.132813 196.214844 116.175781 197.066406 115.425781 L 187.324219 124.007813 C 192.675781 135.492188 198.6875 154.804688 185.195313 165.3125 C 189.117188 163.730469 193.445313 160.621094 195.742188 157.019531 C 198.808594 152.210938 199.476563 146.402344 198.601563 140.851563 "/>
<path style=" stroke:none;fill-rule:nonzero;fill:rgb(11.799622%,9.799194%,8.999634%);fill-opacity:1;" d="M 198.601563 140.851563 L 199.054688 140.78125 C 198.492188 137.246094 197.738281 133.8125 197.390625 130.292969 C 197.152344 127.9375 197.003906 125.570313 197.003906 123.210938 C 197.003906 122.894531 197.007813 122.582031 197.011719 122.265625 L 197.011719 122.183594 C 197.011719 121.605469 196.949219 120.390625 196.949219 119.140625 C 196.949219 118.339844 196.976563 117.527344 197.058594 116.886719 C 197.097656 116.566406 197.152344 116.289063 197.214844 116.085938 C 197.273438 115.886719 197.355469 115.769531 197.367188 115.765625 C 197.554688 115.597656 197.574219 115.3125 197.40625 115.121094 C 197.242188 114.933594 196.953125 114.914063 196.761719 115.082031 L 187.019531 123.664063 C 186.867188 123.800781 186.824219 124.015625 186.910156 124.199219 C 189.835938 130.472656 192.945313 139.089844 192.941406 147.246094 C 192.9375 153.953125 190.871094 160.308594 184.914063 164.953125 C 184.734375 165.09375 184.6875 165.34375 184.800781 165.539063 C 184.914063 165.738281 185.15625 165.820313 185.367188 165.738281 C 189.367188 164.113281 193.75 160.980469 196.128906 157.265625 C 198.4375 153.640625 199.414063 149.46875 199.414063 145.28125 C 199.414063 143.777344 199.289063 142.269531 199.054688 140.78125 L 198.601563 140.851563 L 198.152344 140.925781 C 198.378906 142.367188 198.5 143.828125 198.5 145.28125 C 198.5 149.332031 197.558594 153.320313 195.355469 156.773438 C 193.140625 160.261719 188.863281 163.34375 185.023438 164.890625 L 185.195313 165.3125 L 185.476563 165.675781 C 191.691406 160.839844 193.863281 154.132813 193.855469 147.246094 C 193.851563 138.863281 190.6875 130.152344 187.734375 123.816406 L 187.324219 124.007813 L 187.625 124.351563 L 197.367188 115.765625 C 197.457031 115.683594 197.511719 115.574219 197.519531 115.453125 C 197.527344 115.332031 197.488281 115.214844 197.40625 115.121094 C 197.328125 115.03125 197.214844 114.976563 197.09375 114.96875 C 196.972656 114.960938 196.855469 115 196.761719 115.082031 C 196.539063 115.285156 196.433594 115.535156 196.34375 115.8125 C 196.085938 116.648438 196.039063 117.902344 196.039063 119.140625 C 196.039063 120.414063 196.101563 121.65625 196.101563 122.183594 L 196.101563 122.253906 L 196.101563 122.25 C 196.09375 122.570313 196.09375 122.890625 196.09375 123.210938 C 196.09375 125.609375 196.242188 128.003906 196.480469 130.386719 C 196.839844 133.972656 197.597656 137.425781 198.152344 140.925781 L 198.601563 140.851563 "/>
<path style=" stroke:none;fill-rule:nonzero;fill:rgb(85.499573%,16.099548%,15.299988%);fill-opacity:1;" d="M 186.574219 164.695313 L 187.097656 165.085938 C 189.363281 163.859375 194.015625 162.15625 199.832031 164.296875 L 200.199219 164.179688 C 200.199219 164.179688 202.199219 158.71875 205.617188 158.71875 C 205.617188 158.71875 201.078125 156.3125 195.089844 157.929688 C 192.992188 160.726563 189.753906 163.160156 186.574219 164.695313 "/>
<path style=" stroke:none;fill-rule:nonzero;fill:rgb(11.799622%,9.799194%,8.999634%);fill-opacity:1;" d="M 186.574219 164.695313 L 186.300781 165.0625 L 186.820313 165.449219 C 186.964844 165.558594 187.15625 165.570313 187.3125 165.488281 C 188.75 164.710938 191.183594 163.730469 194.273438 163.730469 C 195.902344 163.730469 197.71875 164.003906 199.675781 164.722656 L 199.972656 164.730469 L 200.335938 164.613281 C 200.472656 164.570313 200.578125 164.46875 200.628906 164.335938 C 200.628906 164.335938 200.652344 164.261719 200.714844 164.117188 C 200.917969 163.617188 201.492188 162.339844 202.355469 161.21875 C 202.785156 160.65625 203.289063 160.136719 203.839844 159.765625 C 204.390625 159.394531 204.980469 159.175781 205.617188 159.175781 C 205.828125 159.175781 206.011719 159.03125 206.0625 158.828125 C 206.113281 158.625 206.015625 158.414063 205.832031 158.316406 C 205.789063 158.292969 203.183594 156.914063 199.285156 156.914063 C 197.976563 156.914063 196.519531 157.070313 194.972656 157.488281 L 194.726563 157.65625 C 192.691406 160.378906 189.496094 162.78125 186.378906 164.285156 L 186.574219 164.695313 L 186.898438 164.371094 L 186.574219 164.695313 L 186.300781 165.0625 L 186.574219 164.695313 L 186.253906 165.019531 C 186.390625 165.15625 186.597656 165.191406 186.773438 165.105469 C 190.011719 163.539063 193.300781 161.078125 195.457031 158.203125 L 195.089844 157.929688 L 195.210938 158.367188 C 196.675781 157.972656 198.046875 157.824219 199.285156 157.824219 C 201.125 157.824219 202.664063 158.152344 203.738281 158.480469 C 204.277344 158.644531 204.699219 158.804688 204.984375 158.925781 C 205.125 158.988281 205.234375 159.035156 205.304688 159.070313 L 205.382813 159.109375 L 205.402344 159.121094 L 205.617188 158.71875 L 205.617188 158.261719 C 204.636719 158.261719 203.773438 158.65625 203.050781 159.210938 C 200.898438 160.878906 199.789063 163.992188 199.769531 164.023438 L 200.199219 164.179688 L 200.058594 163.746094 L 199.695313 163.859375 L 199.832031 164.296875 L 199.992188 163.867188 C 197.929688 163.109375 196.003906 162.820313 194.273438 162.820313 C 190.988281 162.820313 188.410156 163.855469 186.878906 164.683594 L 187.097656 165.085938 L 187.367188 164.71875 L 186.847656 164.328125 C 186.65625 164.1875 186.386719 164.214844 186.230469 164.398438 C 186.074219 164.578125 186.082031 164.847656 186.253906 165.019531 L 186.574219 164.695313 "/>
<path style=" stroke:none;fill-rule:nonzero;fill:rgb(85.499573%,16.099548%,15.299988%);fill-opacity:1;" d="M 177.632813 165.027344 L 177.9375 164.890625 L 177.808594 164.535156 C 174.738281 163 171.644531 160.644531 169.617188 157.941406 L 169.589844 157.9375 C 163.578125 156.296875 159.019531 158.71875 159.019531 158.71875 C 162.4375 158.71875 164.4375 164.179688 164.4375 164.179688 L 164.863281 164.382813 C 170.59375 162.222656 175.242188 163.785156 177.636719 165.027344 "/>
<path style=" stroke:none;fill-rule:nonzero;fill:rgb(11.799622%,9.799194%,8.999634%);fill-opacity:1;" d="M 177.632813 165.027344 L 177.824219 165.445313 L 178.128906 165.304688 C 178.34375 165.207031 178.449219 164.957031 178.367188 164.730469 L 178.234375 164.378906 L 178.011719 164.128906 C 174.996094 162.621094 171.953125 160.296875 169.984375 157.667969 C 169.90625 157.566406 169.789063 157.5 169.664063 157.488281 L 169.632813 157.484375 L 169.589844 157.9375 L 169.707031 157.496094 C 168.144531 157.070313 166.675781 156.910156 165.351563 156.910156 C 161.453125 156.914063 158.847656 158.292969 158.804688 158.316406 C 158.621094 158.414063 158.527344 158.625 158.578125 158.828125 C 158.628906 159.03125 158.8125 159.175781 159.019531 159.175781 C 159.75 159.175781 160.414063 159.464844 161.03125 159.933594 C 161.949219 160.636719 162.710938 161.742188 163.222656 162.671875 C 163.480469 163.136719 163.679688 163.558594 163.8125 163.859375 C 163.878906 164.011719 163.925781 164.132813 163.960938 164.214844 L 164.007813 164.335938 C 164.046875 164.449219 164.132813 164.539063 164.238281 164.589844 L 164.664063 164.796875 C 164.777344 164.847656 164.90625 164.855469 165.023438 164.8125 C 167.039063 164.050781 168.910156 163.765625 170.589844 163.765625 C 173.5625 163.765625 175.941406 164.664063 177.425781 165.433594 L 177.636719 165.027344 L 177.621094 164.574219 L 177.632813 165.027344 L 177.824219 165.445313 L 177.632813 165.027344 L 177.648438 165.484375 C 177.859375 165.480469 178.035156 165.332031 178.082031 165.128906 C 178.128906 164.929688 178.03125 164.71875 177.847656 164.625 C 176.269531 163.804688 173.75 162.851563 170.589844 162.851563 C 168.804688 162.851563 166.820313 163.15625 164.703125 163.957031 L 164.863281 164.382813 L 165.058594 163.972656 L 164.632813 163.769531 L 164.4375 164.179688 L 164.863281 164.023438 C 164.855469 164.003906 164.347656 162.609375 163.386719 161.191406 C 162.90625 160.484375 162.308594 159.765625 161.585938 159.210938 C 160.863281 158.65625 160 158.261719 159.019531 158.261719 L 159.019531 158.71875 L 159.234375 159.121094 L 159.257813 159.109375 C 159.507813 158.980469 161.902344 157.824219 165.351563 157.824219 C 166.601563 157.824219 167.988281 157.976563 169.46875 158.378906 L 169.542969 158.394531 L 169.574219 158.394531 L 169.617188 157.941406 L 169.253906 158.214844 C 171.339844 160.992188 174.476563 163.378906 177.605469 164.945313 L 177.808594 164.535156 L 177.378906 164.695313 L 177.507813 165.046875 L 177.9375 164.890625 L 177.746094 164.476563 L 177.445313 164.613281 C 177.246094 164.703125 177.140625 164.921875 177.1875 165.132813 C 177.238281 165.34375 177.429688 165.492188 177.648438 165.484375 L 177.632813 165.027344 "/>
<path style=" stroke:none;fill-rule:nonzero;fill:rgb(85.499573%,16.099548%,15.299988%);fill-opacity:1;" d="M 177.246094 124.058594 C 178.253906 121.898438 179.230469 120.019531 180.058594 118.523438 L 176.082031 113.015625 L 172.972656 119.855469 L 172.972656 120.128906 L 177.300781 123.941406 L 177.246094 124.058594 "/>
<path style=" stroke:none;fill-rule:nonzero;fill:rgb(11.799622%,9.799194%,8.999634%);fill-opacity:1;" d="M 177.246094 124.058594 L 177.660156 124.25 C 178.660156 122.101563 179.636719 120.234375 180.457031 118.742188 L 180.597656 118.492188 L 175.992188 112.109375 L 172.515625 119.753906 L 172.515625 120.335938 L 177 124.285156 L 177.300781 123.941406 L 176.890625 123.746094 L 176.835938 123.859375 L 176.523438 124.511719 L 177.539063 124.511719 L 177.660156 124.25 L 177.246094 124.058594 L 177.246094 123.601563 L 177.246094 124.058594 L 177.660156 124.253906 L 177.714844 124.136719 L 177.863281 123.828125 L 173.429688 119.921875 L 173.429688 119.855469 L 172.972656 119.855469 L 173.386719 120.042969 L 176.171875 113.917969 L 179.6875 118.789063 L 180.058594 118.523438 L 179.660156 118.300781 C 178.828125 119.808594 177.84375 121.695313 176.835938 123.863281 L 177.246094 124.058594 L 177.246094 123.601563 L 177.246094 124.058594 "/>
<path style=" stroke:none;fill-rule:nonzero;fill:rgb(85.499573%,16.099548%,15.299988%);fill-opacity:1;" d="M 187.324219 124.007813 L 192.074219 119.820313 L 188.984375 113.015625 L 184.941406 118.609375 L 184.941406 119.269531 C 185.695313 120.65625 186.542969 122.328125 187.40625 124.191406 L 187.324219 124.007813 "/>
<path style=" stroke:none;fill-rule:nonzero;fill:rgb(11.799622%,9.799194%,8.999634%);fill-opacity:1;" d="M 187.324219 124.007813 L 187.625 124.351563 L 192.632813 119.9375 L 189.074219 112.109375 L 184.484375 118.464844 L 184.484375 119.382813 L 184.539063 119.484375 C 185.289063 120.867188 186.132813 122.527344 186.992188 124.382813 L 187.820313 124.003906 L 187.738281 123.820313 L 187.324219 124.007813 L 187.777344 124.007813 L 187.324219 124.007813 L 187.625 124.351563 L 187.324219 124.007813 L 186.867188 124.007813 L 186.867188 124.105469 L 186.988281 124.378906 L 187.820313 124 C 186.953125 122.128906 186.101563 120.449219 185.34375 119.050781 L 184.941406 119.269531 L 185.398438 119.269531 L 185.398438 118.757813 L 188.894531 113.917969 L 191.519531 119.699219 L 186.867188 123.800781 L 186.867188 124.007813 L 187.324219 124.007813 "/>
</g>
</svg>
